<svg width="30" height="29" viewBox="0 0 30 29" fill="none" xmlns="http://www.w3.org/2000/svg">
<g id="Home" clip-path="url(#clip0_625_646)">
<path id="Vector" d="M29.1912 12.4729C29.1905 12.4723 29.1898 12.4717 29.1891 12.471L16.9515 0.965983C16.4299 0.475354 15.7363 0.205078 14.9987 0.205078C14.261 0.205078 13.5675 0.475139 13.0456 0.965768L0.814392 12.465C0.810273 12.4689 0.806153 12.4729 0.802033 12.4768C-0.269134 13.4897 -0.267303 15.1331 0.807297 16.1434C1.29825 16.6052 1.94667 16.8727 2.63995 16.9007C2.66811 16.9032 2.69649 16.9045 2.7251 16.9045H3.21285V25.3715C3.21285 27.047 4.66281 28.4102 6.44534 28.4102H11.2331C11.7183 28.4102 12.112 28.0403 12.112 27.5839V20.9458C12.112 20.1812 12.7735 19.5593 13.5867 19.5593H16.4106C17.2238 19.5593 17.8853 20.1812 17.8853 20.9458V27.5839C17.8853 28.0403 18.2788 28.4102 18.7642 28.4102H23.552C25.3345 28.4102 26.7845 27.047 26.7845 25.3715V16.9045H27.2367C27.9742 16.9045 28.6677 16.6345 29.1898 16.1438C30.2655 15.1318 30.266 13.4856 29.1912 12.4729Z" fill="#FFFCED"/>
</g>
<defs>
<clipPath id="clip0_625_646">
<rect width="30" height="28.2051" fill="white" transform="translate(0 0.205078)"/>
</clipPath>
</defs>
</svg>
