<svg id="Capa_1" enable-background="new 0 0 512 512" height="512" viewBox="0 0 512 512" width="512" xmlns="http://www.w3.org/2000/svg"><g><path d="m46 512h60c8.291 0 15-6.709 15-15v-61c0-8.291-6.709-15-15-15h-15v-60h150v60h-15c-8.291 0-15 6.709-15 15v61c0 8.291 6.709 15 15 15h60c8.291 0 15-6.709 15-15v-61c0-8.291-6.709-15-15-15h-15v-60h150v60h-15c-8.291 0-15 6.709-15 15v61c0 8.291 6.709 15 15 15h60c8.291 0 15-6.709 15-15v-61c0-8.291-6.709-15-15-15h-15v-75c0-8.291-6.709-15-15-15h-135v-30h-90v30h-135c-8.291 0-15 6.709-15 15v75h-15c-8.291 0-15 6.709-15 15v61c0 8.291 6.709 15 15 15z"/><path d="m271 172.211v98.789h33.627c3.204-6.859 8.297-12.777 15.225-16.494 43.887-23.555 71.148-68.965 71.148-118.506 0-74.443-60.557-136-135-136s-135 61.557-135 136c0 49.541 27.261 94.951 71.147 118.521 6.929 3.71 12.023 9.622 15.227 16.479h33.626v-98.789l-25.605-25.605c-5.859-5.859-5.859-15.352 0-21.211s15.352-5.859 21.211 0l19.394 19.394 19.395-19.395c5.859-5.859 15.352-5.859 21.211 0s5.859 15.352 0 21.211z"/></g></svg>