<svg viewBox="0 0 712 675" fill="none" xmlns="http://www.w3.org/2000/svg"><g clip-path="url(#clip0_1_2)"><path d="M208.5 51.5C75.5 120 58.5 212 58.5 334.5H91.5C85.5 208.5 104 150 219 80L208.5 51.5Z"/><path d="M232 273.5C232 109 464.5 111 464.5 273.5H232Z"/><path d="M348 122C430.5 122 439 1 348 1C257 1 265.5 122 348 122Z"/><path d="M232 273.5C232 109 464.5 111 464.5 273.5H232Z"/><path d="M348 122C430.5 122 439 1 348 1C257 1 265.5 122 348 122Z"/><path d="M479 675C479 510.5 711.5 512.5 711.5 675H479Z"/><path d="M595 523.5C677.5 523.5 686 402.5 595 402.5C504 402.5 512.5 523.5 595 523.5Z"/><path d="M479 675C479 510.5 711.5 512.5 711.5 675H479Z"/><path d="M595 523.5C677.5 523.5 686 402.5 595 402.5C504 402.5 512.5 523.5 595 523.5Z"/><path d="M0 675C0 510.5 232.5 512.5 232.5 675H0Z"/><path d="M116 523.5C198.5 523.5 207 402.5 116 402.5C25 402.5 33.5 523.5 116 523.5Z"/><path d="M0 675C0 510.5 232.5 512.5 232.5 675H0Z"/><path d="M116 523.5C198.5 523.5 207 402.5 116 402.5C25 402.5 33.5 523.5 116 523.5Z"/><path d="M442.5 557C357.5 589 341.5 589 269 557L262.5 583.5C330.842 621.683 370.112 617.974 447 583.5L442.5 557Z"/><path d="M474 50.5C607 119 624 211 624 333.5H591C597 207.5 578.5 149 463.5 79L474 50.5Z"/></g><defs><clipPath id="clip0_1_2"><rect width="712" height="675"/></clipPath></defs></svg>