<svg width="187" height="78" viewBox="0 0 187 78" fill="none" xmlns="http://www.w3.org/2000/svg"><g clip-path="url(#clip0_130_1374)"><path d="M10.74 49.0106H0V42.4506H29.25V49.0106H18.51V77.2406H10.74V49.0106Z" fill="#172D4A"/><path d="M54.8102 77.2306L48.3402 67.5406H41.2002V77.2306H33.4302V42.4406H47.9602C56.9302 42.4406 62.5402 47.2606 62.5402 55.0606C62.5402 60.2806 60.0002 64.1006 55.6402 66.0406L63.1702 77.2206H54.8302L54.8102 77.2306ZM47.5202 49.0006H41.1902V61.1306H47.5202C52.2702 61.1306 54.6602 58.8406 54.6602 55.0706C54.6602 51.3006 52.2602 49.0106 47.5202 49.0106V49.0006Z" fill="#172D4A"/><path d="M94.6502 70.7706V77.2306H68.6602V42.4406H94.0302V48.9006H76.3801V56.4506H91.9602V62.7106H76.3801V70.7606H94.6502V70.7706Z" fill="#172D4A"/><path d="M98.2002 73.8107L100.84 67.7507C103.67 69.8907 107.89 71.3807 111.92 71.3807C116.52 71.3807 118.39 69.7907 118.39 67.6507C118.39 61.1407 98.8702 65.6107 98.8702 52.6907C98.8702 46.7807 103.47 41.8607 113.02 41.8607C117.24 41.8607 121.56 42.9007 124.67 44.9407L122.27 51.0507C119.15 49.2107 115.94 48.3207 112.97 48.3207C108.37 48.3207 106.59 50.1107 106.59 52.3007C106.59 58.7107 126.11 54.2907 126.11 67.0607C126.11 72.8707 121.46 77.8407 111.87 77.8407C106.55 77.8407 101.18 76.2007 98.2002 73.8107Z" fill="#172D4A"/><path d="M128.79 73.8107L131.43 67.7507C134.26 69.8907 138.48 71.3807 142.51 71.3807C147.11 71.3807 148.98 69.7907 148.98 67.6507C148.98 61.1407 129.46 65.6107 129.46 52.6907C129.46 46.7807 134.06 41.8607 143.6 41.8607C147.82 41.8607 152.14 42.9007 155.25 44.9407L152.85 51.0507C149.73 49.2107 146.52 48.3207 143.55 48.3207C138.95 48.3207 137.17 50.1107 137.17 52.3007C137.17 58.7107 156.69 54.2907 156.69 67.0607C156.69 72.8707 152.04 77.8407 142.45 77.8407C137.13 77.8407 131.76 76.2007 128.78 73.8107H128.79Z" fill="#172D4A"/><path d="M188 70.7706V77.2306H162.01V42.4406H187.38V48.9006H169.73V56.4506H185.31V62.7106H169.73V70.7606H188V70.7706Z" fill="#172D4A"/><g clip-path="url(#clip1_130_1374)"><path d="M63.6999 -5.27125L91.878 25.1709" stroke="#FFD403" stroke-width="9" stroke-miterlimit="10"/><path d="M99.9849 12.1904L76.373 37.62" stroke="#004B8E" stroke-width="9" stroke-miterlimit="10"/><path d="M87.2077 -4.96271L110.778 20.4969" stroke="#00A68C" stroke-width="9" stroke-miterlimit="10"/><path d="M121.591 12.2042L97.9794 37.6338" stroke="#FFD403" stroke-width="9" stroke-miterlimit="10"/><path d="M108.814 -4.94898L132.384 20.5107" stroke="#004B8E" stroke-width="9" stroke-miterlimit="10"/><path d="M143.198 12.218L119.586 37.6475" stroke="#00A68C" stroke-width="9" stroke-miterlimit="10"/><path d="M130.42 -4.93519L153.99 20.5245" stroke="#FFD403" stroke-width="9" stroke-miterlimit="10"/><path d="M164.794 12.2317L141.192 37.6613" stroke="#004B8E" stroke-width="9" stroke-miterlimit="10"/><path d="M152.017 -4.92134L175.597 20.5383" stroke="#00A68C" stroke-width="9" stroke-miterlimit="10"/><path d="M194.184 10.6411L187.903 10.6371L181.869 10.6332L160.673 33.3924L166.771 33.3963L172.495 33.3999L194.184 10.6411Z" fill="#FFD403"/></g></g><path d="M0.557129 0.00579834H7.89787L7.78846 27.8358H29.0249V34.3058H0.557129V0.00579834Z" fill="#172D4A"/><path d="M53.9313 27.6458H42.6516L40.5528 34.3058H32.854L44.641 0.00579834H52.0712L63.8781 34.3058H56.0301L53.9313 27.6458ZM51.7231 20.4958L48.2915 9.5158L44.8598 20.4958H51.7132H51.7231Z" fill="#172D4A"/><defs><clipPath id="clip0_130_1374"><rect width="187" height="78" fill="white"/></clipPath><clipPath id="clip1_130_1374"><rect width="118.712" height="33.3597" fill="white" transform="matrix(-1 -0.000633501 -0.00062678 1 186.733 0.0751953)"/></clipPath></defs></svg>
