<svg id="Capa_1" enable-background="new 0 0 512 512" height="512" viewBox="0 0 512 512" width="512" xmlns="http://www.w3.org/2000/svg"><g><g><path d="m256 512c-24.813 0-45-20.187-45-45s20.187-45 45-45 45 20.187 45 45-20.187 45-45 45z"/><path d="m256 390.002c-24.813 0-44.999-20.187-44.999-45v-102.998c0-24.813 20.186-45 44.999-45 14.803 0 28.583-5.926 38.802-16.687 10.195-10.748 15.389-24.856 14.618-39.719-1.441-27.802-24.412-50.021-52.297-50.585-.374-.008-.75-.012-1.123-.012-26.631 0-49.299 19.583-52.98 45.979-.345 2.475-.52 5.005-.52 7.522 0 24.813-20.187 45-45 45s-45-20.187-45-45c0-6.69.468-13.416 1.391-19.99 10.026-71.877 72.415-124.95 145.053-123.482 74.821 1.515 136.474 61.212 140.356 135.903v.002c2.062 39.76-11.873 77.528-39.238 106.349-16.331 17.205-36.571 30.002-59.062 37.435v65.284c.001 24.813-20.187 44.999-45 44.999z"/></g></g></svg>