<?xml version="1.0" encoding="iso-8859-1"?>
<!-- Generator: Adobe Illustrator 19.0.0, SVG Export Plug-In . SVG Version: 6.00 Build 0)  -->
<svg version="1.1" id="Capa_1" xmlns="http://www.w3.org/2000/svg" xmlns:xlink="http://www.w3.org/1999/xlink" x="0px" y="0px"
	 viewBox="0 0 512 512" style="enable-background:new 0 0 512 512;" xml:space="preserve">
<g>
	<g>
		<path d="M424.2,242v203.6c0,20.07,16.33,36.4,36.4,36.4s36.4-16.33,36.4-36.4V242H424.2z"/>
	</g>
</g>
<g>
	<g>
		<rect x="109.02" y="107.67" width="60.85" height="60.85"/>
	</g>
</g>
<g>
	<g>
		<path d="M394.2,445.6V0H15v446.79C15,482.75,44.25,512,80.21,512H460.6C423.98,512,394.2,482.21,394.2,445.6z M79.02,77.67h120.85
			v120.85H79.02V77.67z M334,411.99H76.66v-30H334V411.99z M334,342.99H76.66v-30H334V342.99z M334,273.99H76.66v-30H334V273.99z"/>
	</g>
</g>
<g>
</g>
<g>
</g>
<g>
</g>
<g>
</g>
<g>
</g>
<g>
</g>
<g>
</g>
<g>
</g>
<g>
</g>
<g>
</g>
<g>
</g>
<g>
</g>
<g>
</g>
<g>
</g>
<g>
</g>
</svg>
