<svg id="Capa_1" enable-background="new 0 0 512 512" height="512" viewBox="0 0 512 512" width="512" xmlns="http://www.w3.org/2000/svg"><g><path d="m472 81h-35v335c0 24.813-20.187 45-45 45h-287v36c0 8.284 6.716 15 15 15h352c8.284 0 15-6.716 15-15v-401c0-8.284-6.716-15-15-15z"/><path d="m407 416v-401c0-8.284-6.716-15-15-15h-352c-8.284 0-15 6.716-15 15v401c0 8.284 6.716 15 15 15h352c8.284 0 15-6.716 15-15zm-318-272c0-8.284 6.716-15 15-15h80c8.284 0 15 6.716 15 15v144c0 8.284-6.716 15-15 15h-80c-8.284 0-15-6.716-15-15zm239 223h-224c-8.284 0-15-6.716-15-15s6.716-15 15-15h224c8.284 0 15 6.716 15 15s-6.716 15-15 15zm0-64h-80c-8.284 0-15-6.716-15-15s6.716-15 15-15h80c8.284 0 15 6.716 15 15s-6.716 15-15 15zm0-72h-80c-8.284 0-15-6.716-15-15s6.716-15 15-15h80c8.284 0 15 6.716 15 15s-6.716 15-15 15zm0-64h-80c-8.284 0-15-6.716-15-15s6.716-15 15-15h80c8.284 0 15 6.716 15 15s-6.716 15-15 15zm0-72h-224c-8.284 0-15-6.716-15-15s6.716-15 15-15h224c8.284 0 15 6.716 15 15s-6.716 15-15 15z"/><path d="m119 159h50v114h-50z"/></g></svg>