<svg id="Capa_1" enable-background="new 0 0 512 512" height="512" viewBox="0 0 512 512" width="512" xmlns="http://www.w3.org/2000/svg"><g><path d="m474.976 207.967c-5.753-26.249-16.104-50.798-30.188-72.737l20.796-31.684-57.131-57.132-31.643 20.824c-21.936-14.089-46.482-24.445-72.729-30.204l-7.683-37.034h-80.796l-7.635 37.024c-26.232 5.75-50.766 16.09-72.694 30.16l-31.727-20.769-57.132 57.132 20.796 31.684c-14.066 21.912-24.409 46.426-30.166 72.639l-37.044 7.732v80.796l37.034 7.683c5.752 26.214 16.088 50.731 30.149 72.646l-20.769 31.727 57.132 57.132 31.684-20.796c21.912 14.066 46.426 24.408 72.638 30.166l7.734 37.044h80.796l7.684-37.035c26.231-5.755 50.762-16.102 72.688-30.177l31.684 20.796 57.131-57.132-20.823-31.643c14.089-21.936 24.445-46.482 30.204-72.729l37.034-7.682v-80.796zm-218.976 210.623c-89.653 0-162.59-72.938-162.59-162.59s72.937-162.59 162.59-162.59c89.652 0 162.59 72.938 162.59 162.59s-72.938 162.59-162.59 162.59z"/><path d="m256 123.41c-73.11 0-132.59 59.48-132.59 132.59s59.48 132.59 132.59 132.59 132.59-59.48 132.59-132.59-59.48-132.59-132.59-132.59zm51.81 164.792-21.213 21.213-30.597-30.597-30.597 30.596-21.213-21.213 30.597-30.596-30.597-30.596 21.213-21.213 30.597 30.596 30.597-30.596 21.213 21.213-30.597 30.596z"/></g></svg>